<svg xmlns="http://www.w3.org/2000/svg" width="1200" height="800" viewBox="0 0 1200 800" role="img" aria-label="Preview Database Administrator CV">
  <defs>
    <linearGradient id="grad" x1="0%" y1="0%" x2="100%" y2="100%">
      <stop offset="0%" stop-color="#07101f" />
      <stop offset="100%" stop-color="#334155" />
    </linearGradient>
  </defs>
  <rect width="1200" height="800" rx="48" fill="url(#grad)" />
  <rect x="72" y="72" width="1056" height="160" rx="32" fill="rgba(255,255,255,0.08)" />
  <rect x="96" y="116" width="540" height="32" rx="16" fill="#fff" opacity="0.9" />
  <rect x="96" y="172" width="340" height="20" rx="10" fill="#cbd5e1" opacity="0.75" />
  <rect x="96" y="260" width="988" height="28" rx="14" fill="#fff" opacity="0.08" />
  <rect x="96" y="308" width="820" height="28" rx="14" fill="#fff" opacity="0.08" />
  <rect x="96" y="356" width="900" height="28" rx="14" fill="#fff" opacity="0.08" />
  <rect x="96" y="404" width="640" height="28" rx="14" fill="#fff" opacity="0.08" />
  <g opacity="0.9">
    <rect x="96" y="472" width="220" height="140" rx="28" fill="#f8fafc" />
    <rect x="352" y="496" width="520" height="28" rx="14" fill="#cbd5e1" />
    <rect x="352" y="548" width="420" height="28" rx="14" fill="#cbd5e1" />
    <rect x="352" y="600" width="260" height="28" rx="14" fill="#cbd5e1" />
  </g>
  <text x="96" y="620" fill="#fff" font-family="Inter, sans-serif" font-size="52" font-weight="700">Database Administrator</text>
</svg>
