<svg xmlns="http://www.w3.org/2000/svg" width="1200" height="800" viewBox="0 0 1200 800" role="img" aria-label="Preview AI Systems CV">
  <defs>
    <linearGradient id="grad" x1="0%" y1="0%" x2="100%" y2="100%">
      <stop offset="0%" stop-color="#020617" />
      <stop offset="100%" stop-color="#1e293b" />
    </linearGradient>
    <filter id="glow" x="-20%" y="-20%" width="140%" height="140%">
      <feGaussianBlur stdDeviation="10" result="blur" />
      <feMerge>
        <feMergeNode in="blur" />
        <feMergeNode in="SourceGraphic" />
      </feMerge>
    </filter>
  </defs>
  <rect width="1200" height="800" rx="48" fill="url(#grad)" />
  <circle cx="310" cy="240" r="88" fill="#38bdf8" opacity="0.22" filter="url(#glow)" />
  <circle cx="310" cy="240" r="48" fill="#38bdf8" />
  <path d="M330 240c0 23-19 42-42 42s-42-19-42-42 19-42 42-42 42 19 42 42z" fill="#0ea5e9" opacity="0.6" />
  <rect x="72" y="72" width="1056" height="160" rx="32" fill="rgba(255,255,255,0.08)" />
  <rect x="96" y="116" width="540" height="32" rx="16" fill="#fff" opacity="0.9" />
  <rect x="96" y="172" width="340" height="20" rx="10" fill="#cbd5e1" opacity="0.75" />
  <rect x="96" y="260" width="988" height="28" rx="14" fill="#fff" opacity="0.08" />
  <rect x="96" y="308" width="820" height="28" rx="14" fill="#fff" opacity="0.08" />
  <rect x="96" y="356" width="900" height="28" rx="14" fill="#fff" opacity="0.08" />
  <rect x="96" y="404" width="640" height="28" rx="14" fill="#fff" opacity="0.08" />
  <text x="96" y="620" fill="#fff" font-family="Inter, sans-serif" font-size="52" font-weight="700">AI Systems Engineer</text>
</svg>
