<svg xmlns="http://www.w3.org/2000/svg" width="1200" height="800" viewBox="0 0 1200 800" role="img" aria-label="Preview Full Stack CV">
  <defs>
    <linearGradient id="grad" x1="0%" y1="0%" x2="100%" y2="100%">
      <stop offset="0%" stop-color="#0f172a" />
      <stop offset="100%" stop-color="#334155" />
    </linearGradient>
  </defs>
  <rect width="1200" height="800" rx="48" fill="url(#grad)" />
  <rect x="72" y="72" width="1056" height="160" rx="32" fill="rgba(255,255,255,0.08)" />
  <rect x="96" y="116" width="540" height="32" rx="16" fill="#fff" opacity="0.9" />
  <rect x="96" y="172" width="340" height="20" rx="10" fill="#cbd5e1" opacity="0.75" />
  <rect x="96" y="240" width="988" height="28" rx="14" fill="#fff" opacity="0.08" />
  <rect x="96" y="288" width="820" height="28" rx="14" fill="#fff" opacity="0.08" />
  <rect x="96" y="336" width="900" height="28" rx="14" fill="#fff" opacity="0.08" />
  <rect x="96" y="384" width="640" height="28" rx="14" fill="#fff" opacity="0.08" />
  <g opacity="0.9">
    <rect x="96" y="472" width="140" height="140" rx="28" fill="#e2e8f0" />
    <rect x="256" y="472" width="500" height="28" rx="14" fill="#cbd5e1" />
    <rect x="256" y="520" width="420" height="28" rx="14" fill="#cbd5e1" />
    <rect x="256" y="568" width="260" height="28" rx="14" fill="#cbd5e1" />
  </g>
  <text x="96" y="524" fill="#fff" font-family="Inter, sans-serif" font-size="52" font-weight="700">Full Stack Developer</text>
</svg>
